<mxfile host="app.diagrams.net" modified="2022-04-27T06:28:00.816Z" agent="5.0 (Macintosh; Intel Mac OS X 10_15_7) AppleWebKit/605.1.15 (KHTML, like Gecko) Version/15.2 Safari/605.1.15" etag="C2MBmJJexsmyLKsKQkV1" version="17.4.6" type="github">
  <diagram id="sYEqaUmIaJ6EkYhpUy6w" name="Page-1">
    <mxGraphModel dx="830" dy="574" grid="1" gridSize="10" guides="1" tooltips="1" connect="1" arrows="1" fold="1" page="1" pageScale="1" pageWidth="827" pageHeight="1169" math="0" shadow="0">
      <root>
        <mxCell id="0" />
        <mxCell id="1" parent="0" />
        <mxCell id="WH_KZMbTh99QJdh1wqXS-12" style="edgeStyle=orthogonalEdgeStyle;rounded=0;orthogonalLoop=1;jettySize=auto;html=1;entryX=0.5;entryY=0;entryDx=0;entryDy=0;" edge="1" parent="1" source="WH_KZMbTh99QJdh1wqXS-1" target="WH_KZMbTh99QJdh1wqXS-2">
          <mxGeometry relative="1" as="geometry" />
        </mxCell>
        <mxCell id="WH_KZMbTh99QJdh1wqXS-1" value="countingPeperoheight = 0" style="ellipse;whiteSpace=wrap;html=1;" vertex="1" parent="1">
          <mxGeometry x="50" y="10" width="230" height="50" as="geometry" />
        </mxCell>
        <mxCell id="WH_KZMbTh99QJdh1wqXS-13" style="edgeStyle=orthogonalEdgeStyle;rounded=0;orthogonalLoop=1;jettySize=auto;html=1;" edge="1" parent="1" source="WH_KZMbTh99QJdh1wqXS-2" target="WH_KZMbTh99QJdh1wqXS-4">
          <mxGeometry relative="1" as="geometry" />
        </mxCell>
        <mxCell id="WH_KZMbTh99QJdh1wqXS-2" value="makeIcecreamOf 실행" style="rounded=0;whiteSpace=wrap;html=1;" vertex="1" parent="1">
          <mxGeometry x="50" y="80" width="230" height="60" as="geometry" />
        </mxCell>
        <mxCell id="WH_KZMbTh99QJdh1wqXS-9" value="" style="edgeStyle=orthogonalEdgeStyle;rounded=0;orthogonalLoop=1;jettySize=auto;html=1;" edge="1" parent="1" source="WH_KZMbTh99QJdh1wqXS-4" target="WH_KZMbTh99QJdh1wqXS-8">
          <mxGeometry relative="1" as="geometry" />
        </mxCell>
        <mxCell id="WH_KZMbTh99QJdh1wqXS-4" value="count(_) 값에 1추가&amp;nbsp;" style="rounded=0;whiteSpace=wrap;html=1;" vertex="1" parent="1">
          <mxGeometry x="50" y="160" width="230" height="60" as="geometry" />
        </mxCell>
        <mxCell id="WH_KZMbTh99QJdh1wqXS-15" style="edgeStyle=orthogonalEdgeStyle;rounded=0;orthogonalLoop=1;jettySize=auto;html=1;" edge="1" parent="1" source="WH_KZMbTh99QJdh1wqXS-6" target="WH_KZMbTh99QJdh1wqXS-10">
          <mxGeometry relative="1" as="geometry" />
        </mxCell>
        <mxCell id="WH_KZMbTh99QJdh1wqXS-6" value="&lt;span&gt;countingPeperoheight += &amp;nbsp;1&lt;/span&gt;" style="rounded=0;whiteSpace=wrap;html=1;" vertex="1" parent="1">
          <mxGeometry x="50" y="320" width="230" height="60" as="geometry" />
        </mxCell>
        <mxCell id="WH_KZMbTh99QJdh1wqXS-14" style="edgeStyle=orthogonalEdgeStyle;rounded=0;orthogonalLoop=1;jettySize=auto;html=1;" edge="1" parent="1" source="WH_KZMbTh99QJdh1wqXS-8" target="WH_KZMbTh99QJdh1wqXS-6">
          <mxGeometry relative="1" as="geometry" />
        </mxCell>
        <mxCell id="WH_KZMbTh99QJdh1wqXS-8" value="makePeperoBodyOf 실행" style="rounded=0;whiteSpace=wrap;html=1;" vertex="1" parent="1">
          <mxGeometry x="50" y="240" width="230" height="60" as="geometry" />
        </mxCell>
        <mxCell id="WH_KZMbTh99QJdh1wqXS-16" style="edgeStyle=orthogonalEdgeStyle;rounded=0;orthogonalLoop=1;jettySize=auto;html=1;entryX=0.5;entryY=0;entryDx=0;entryDy=0;" edge="1" parent="1" source="WH_KZMbTh99QJdh1wqXS-10" target="WH_KZMbTh99QJdh1wqXS-11">
          <mxGeometry relative="1" as="geometry" />
        </mxCell>
        <mxCell id="WH_KZMbTh99QJdh1wqXS-18" style="edgeStyle=orthogonalEdgeStyle;rounded=0;orthogonalLoop=1;jettySize=auto;html=1;" edge="1" parent="1" source="WH_KZMbTh99QJdh1wqXS-10" target="WH_KZMbTh99QJdh1wqXS-17">
          <mxGeometry relative="1" as="geometry" />
        </mxCell>
        <mxCell id="WH_KZMbTh99QJdh1wqXS-10" value="&lt;span&gt;countingPeperoheight 가&amp;nbsp;&lt;br&gt;홀수 입니까?&lt;br&gt;&lt;/span&gt;" style="rhombus;whiteSpace=wrap;html=1;" vertex="1" parent="1">
          <mxGeometry x="50" y="400" width="230" height="80" as="geometry" />
        </mxCell>
        <mxCell id="WH_KZMbTh99QJdh1wqXS-23" style="edgeStyle=orthogonalEdgeStyle;rounded=0;orthogonalLoop=1;jettySize=auto;html=1;" edge="1" parent="1" source="WH_KZMbTh99QJdh1wqXS-11" target="WH_KZMbTh99QJdh1wqXS-22">
          <mxGeometry relative="1" as="geometry" />
        </mxCell>
        <mxCell id="WH_KZMbTh99QJdh1wqXS-11" value="print(&quot;\(topping)&quot; , terminator: &quot;&quot;" style="shape=parallelogram;perimeter=parallelogramPerimeter;whiteSpace=wrap;html=1;fixedSize=1;" vertex="1" parent="1">
          <mxGeometry x="50" y="500" width="230" height="60" as="geometry" />
        </mxCell>
        <mxCell id="WH_KZMbTh99QJdh1wqXS-24" style="edgeStyle=orthogonalEdgeStyle;rounded=0;orthogonalLoop=1;jettySize=auto;html=1;" edge="1" parent="1" source="WH_KZMbTh99QJdh1wqXS-17" target="WH_KZMbTh99QJdh1wqXS-22">
          <mxGeometry relative="1" as="geometry">
            <mxPoint x="719.9999999999998" y="440" as="targetPoint" />
          </mxGeometry>
        </mxCell>
        <mxCell id="WH_KZMbTh99QJdh1wqXS-17" value="print(&quot; &quot;) , terminator: &quot;&quot;" style="shape=parallelogram;perimeter=parallelogramPerimeter;whiteSpace=wrap;html=1;fixedSize=1;" vertex="1" parent="1">
          <mxGeometry x="299" y="410" width="230" height="60" as="geometry" />
        </mxCell>
        <mxCell id="WH_KZMbTh99QJdh1wqXS-19" value="yes" style="text;html=1;strokeColor=none;fillColor=none;align=center;verticalAlign=middle;whiteSpace=wrap;rounded=0;" vertex="1" parent="1">
          <mxGeometry x="180" y="470" width="60" height="30" as="geometry" />
        </mxCell>
        <mxCell id="WH_KZMbTh99QJdh1wqXS-21" value="no" style="text;html=1;strokeColor=none;fillColor=none;align=center;verticalAlign=middle;whiteSpace=wrap;rounded=0;" vertex="1" parent="1">
          <mxGeometry x="260" y="410" width="60" height="30" as="geometry" />
        </mxCell>
        <mxCell id="WH_KZMbTh99QJdh1wqXS-27" style="edgeStyle=orthogonalEdgeStyle;rounded=0;orthogonalLoop=1;jettySize=auto;html=1;" edge="1" parent="1" source="WH_KZMbTh99QJdh1wqXS-22" target="WH_KZMbTh99QJdh1wqXS-25">
          <mxGeometry relative="1" as="geometry" />
        </mxCell>
        <mxCell id="WH_KZMbTh99QJdh1wqXS-22" value="print(&quot;\(type)&quot;) , terminator: &quot;&quot;" style="rounded=0;whiteSpace=wrap;html=1;" vertex="1" parent="1">
          <mxGeometry x="600" y="500" width="200" height="60" as="geometry" />
        </mxCell>
        <mxCell id="WH_KZMbTh99QJdh1wqXS-29" style="edgeStyle=orthogonalEdgeStyle;rounded=0;orthogonalLoop=1;jettySize=auto;html=1;entryX=0.5;entryY=0;entryDx=0;entryDy=0;" edge="1" parent="1" source="WH_KZMbTh99QJdh1wqXS-25" target="WH_KZMbTh99QJdh1wqXS-28">
          <mxGeometry relative="1" as="geometry" />
        </mxCell>
        <mxCell id="WH_KZMbTh99QJdh1wqXS-31" style="edgeStyle=orthogonalEdgeStyle;rounded=0;orthogonalLoop=1;jettySize=auto;html=1;entryX=1;entryY=0.5;entryDx=0;entryDy=0;" edge="1" parent="1" source="WH_KZMbTh99QJdh1wqXS-25" target="WH_KZMbTh99QJdh1wqXS-30">
          <mxGeometry relative="1" as="geometry" />
        </mxCell>
        <mxCell id="WH_KZMbTh99QJdh1wqXS-25" value="&lt;span&gt;countingPeperoheight 가&amp;nbsp;&lt;/span&gt;&lt;br&gt;&lt;span&gt;홀수 입니까?&lt;/span&gt;" style="rhombus;whiteSpace=wrap;html=1;" vertex="1" parent="1">
          <mxGeometry x="600" y="580" width="200" height="80" as="geometry" />
        </mxCell>
        <mxCell id="WH_KZMbTh99QJdh1wqXS-38" style="edgeStyle=orthogonalEdgeStyle;rounded=0;orthogonalLoop=1;jettySize=auto;html=1;entryX=1;entryY=0.5;entryDx=0;entryDy=0;" edge="1" parent="1" source="WH_KZMbTh99QJdh1wqXS-28" target="WH_KZMbTh99QJdh1wqXS-36">
          <mxGeometry relative="1" as="geometry" />
        </mxCell>
        <mxCell id="WH_KZMbTh99QJdh1wqXS-28" value="print(&quot; &quot;)" style="shape=parallelogram;perimeter=parallelogramPerimeter;whiteSpace=wrap;html=1;fixedSize=1;" vertex="1" parent="1">
          <mxGeometry x="600" y="680" width="200" height="60" as="geometry" />
        </mxCell>
        <mxCell id="WH_KZMbTh99QJdh1wqXS-39" style="edgeStyle=orthogonalEdgeStyle;rounded=0;orthogonalLoop=1;jettySize=auto;html=1;entryX=0.5;entryY=0;entryDx=0;entryDy=0;" edge="1" parent="1" source="WH_KZMbTh99QJdh1wqXS-30" target="WH_KZMbTh99QJdh1wqXS-36">
          <mxGeometry relative="1" as="geometry" />
        </mxCell>
        <mxCell id="WH_KZMbTh99QJdh1wqXS-30" value="print(&quot;\(topping)&quot; )" style="shape=parallelogram;perimeter=parallelogramPerimeter;whiteSpace=wrap;html=1;fixedSize=1;" vertex="1" parent="1">
          <mxGeometry x="350" y="590" width="230" height="60" as="geometry" />
        </mxCell>
        <mxCell id="WH_KZMbTh99QJdh1wqXS-33" value="yes" style="text;html=1;strokeColor=none;fillColor=none;align=center;verticalAlign=middle;whiteSpace=wrap;rounded=0;" vertex="1" parent="1">
          <mxGeometry x="700" y="650" width="60" height="30" as="geometry" />
        </mxCell>
        <mxCell id="WH_KZMbTh99QJdh1wqXS-35" value="no" style="text;html=1;strokeColor=none;fillColor=none;align=center;verticalAlign=middle;whiteSpace=wrap;rounded=0;" vertex="1" parent="1">
          <mxGeometry x="560" y="590" width="60" height="30" as="geometry" />
        </mxCell>
        <mxCell id="WH_KZMbTh99QJdh1wqXS-37" style="edgeStyle=orthogonalEdgeStyle;rounded=0;orthogonalLoop=1;jettySize=auto;html=1;entryX=0;entryY=0.5;entryDx=0;entryDy=0;" edge="1" parent="1" source="WH_KZMbTh99QJdh1wqXS-36" target="WH_KZMbTh99QJdh1wqXS-4">
          <mxGeometry relative="1" as="geometry">
            <mxPoint x="20" y="180" as="targetPoint" />
            <Array as="points">
              <mxPoint x="30" y="710" />
              <mxPoint x="30" y="190" />
            </Array>
          </mxGeometry>
        </mxCell>
        <mxCell id="WH_KZMbTh99QJdh1wqXS-44" style="edgeStyle=orthogonalEdgeStyle;rounded=0;orthogonalLoop=1;jettySize=auto;html=1;entryX=0.5;entryY=0;entryDx=0;entryDy=0;" edge="1" parent="1" source="WH_KZMbTh99QJdh1wqXS-36" target="WH_KZMbTh99QJdh1wqXS-43">
          <mxGeometry relative="1" as="geometry" />
        </mxCell>
        <mxCell id="WH_KZMbTh99QJdh1wqXS-36" value="&lt;span&gt;count(_)가&amp;nbsp;bodyweight 보다&amp;nbsp;&lt;br&gt;작습니까?&lt;br&gt;&lt;/span&gt;" style="rhombus;whiteSpace=wrap;html=1;" vertex="1" parent="1">
          <mxGeometry x="40" y="670" width="230" height="80" as="geometry" />
        </mxCell>
        <mxCell id="WH_KZMbTh99QJdh1wqXS-40" value="yes" style="text;html=1;strokeColor=none;fillColor=none;align=center;verticalAlign=middle;whiteSpace=wrap;rounded=0;" vertex="1" parent="1">
          <mxGeometry x="30" y="660" width="60" height="30" as="geometry" />
        </mxCell>
        <mxCell id="WH_KZMbTh99QJdh1wqXS-42" value="no" style="text;html=1;strokeColor=none;fillColor=none;align=center;verticalAlign=middle;whiteSpace=wrap;rounded=0;" vertex="1" parent="1">
          <mxGeometry x="170" y="740" width="60" height="30" as="geometry" />
        </mxCell>
        <mxCell id="WH_KZMbTh99QJdh1wqXS-56" style="edgeStyle=orthogonalEdgeStyle;rounded=0;orthogonalLoop=1;jettySize=auto;html=1;entryX=0.5;entryY=0;entryDx=0;entryDy=0;" edge="1" parent="1" source="WH_KZMbTh99QJdh1wqXS-43" target="WH_KZMbTh99QJdh1wqXS-45">
          <mxGeometry relative="1" as="geometry" />
        </mxCell>
        <mxCell id="WH_KZMbTh99QJdh1wqXS-43" value="makePeperoStickOf 실행" style="rounded=0;whiteSpace=wrap;html=1;" vertex="1" parent="1">
          <mxGeometry x="40" y="770" width="230" height="60" as="geometry" />
        </mxCell>
        <mxCell id="WH_KZMbTh99QJdh1wqXS-57" style="edgeStyle=orthogonalEdgeStyle;rounded=0;orthogonalLoop=1;jettySize=auto;html=1;entryX=0.5;entryY=0;entryDx=0;entryDy=0;" edge="1" parent="1" source="WH_KZMbTh99QJdh1wqXS-45" target="WH_KZMbTh99QJdh1wqXS-48">
          <mxGeometry relative="1" as="geometry" />
        </mxCell>
        <mxCell id="WH_KZMbTh99QJdh1wqXS-45" value="count(_) 값에 1 추가" style="rounded=0;whiteSpace=wrap;html=1;" vertex="1" parent="1">
          <mxGeometry x="40" y="850" width="230" height="60" as="geometry" />
        </mxCell>
        <mxCell id="WH_KZMbTh99QJdh1wqXS-58" style="edgeStyle=orthogonalEdgeStyle;rounded=0;orthogonalLoop=1;jettySize=auto;html=1;entryX=0.5;entryY=0;entryDx=0;entryDy=0;" edge="1" parent="1" source="WH_KZMbTh99QJdh1wqXS-48" target="WH_KZMbTh99QJdh1wqXS-49">
          <mxGeometry relative="1" as="geometry" />
        </mxCell>
        <mxCell id="WH_KZMbTh99QJdh1wqXS-48" value="print(&quot; &amp;nbsp; &amp;nbsp;||&quot;)" style="shape=parallelogram;perimeter=parallelogramPerimeter;whiteSpace=wrap;html=1;fixedSize=1;" vertex="1" parent="1">
          <mxGeometry x="40" y="930" width="230" height="60" as="geometry" />
        </mxCell>
        <mxCell id="WH_KZMbTh99QJdh1wqXS-51" style="edgeStyle=orthogonalEdgeStyle;rounded=0;orthogonalLoop=1;jettySize=auto;html=1;entryX=0;entryY=0.5;entryDx=0;entryDy=0;" edge="1" parent="1" source="WH_KZMbTh99QJdh1wqXS-49" target="WH_KZMbTh99QJdh1wqXS-45">
          <mxGeometry relative="1" as="geometry">
            <Array as="points">
              <mxPoint x="20" y="1050" />
              <mxPoint x="20" y="880" />
            </Array>
          </mxGeometry>
        </mxCell>
        <mxCell id="WH_KZMbTh99QJdh1wqXS-55" style="edgeStyle=orthogonalEdgeStyle;rounded=0;orthogonalLoop=1;jettySize=auto;html=1;" edge="1" parent="1" source="WH_KZMbTh99QJdh1wqXS-49">
          <mxGeometry relative="1" as="geometry">
            <mxPoint x="155" y="1119.9999999999998" as="targetPoint" />
          </mxGeometry>
        </mxCell>
        <mxCell id="WH_KZMbTh99QJdh1wqXS-49" value="count(_) 가 height 보다&amp;nbsp;&lt;br&gt;작은가?&lt;br&gt;&lt;span style=&quot;white-space: pre&quot;&gt;&lt;/span&gt;" style="rhombus;whiteSpace=wrap;html=1;" vertex="1" parent="1">
          <mxGeometry x="40" y="1010" width="230" height="80" as="geometry" />
        </mxCell>
        <mxCell id="WH_KZMbTh99QJdh1wqXS-52" value="no" style="text;html=1;strokeColor=none;fillColor=none;align=center;verticalAlign=middle;whiteSpace=wrap;rounded=0;" vertex="1" parent="1">
          <mxGeometry x="150" y="1090" width="60" height="30" as="geometry" />
        </mxCell>
        <mxCell id="WH_KZMbTh99QJdh1wqXS-53" value="yes" style="text;html=1;strokeColor=none;fillColor=none;align=center;verticalAlign=middle;whiteSpace=wrap;rounded=0;" vertex="1" parent="1">
          <mxGeometry x="10" y="1020" width="60" height="30" as="geometry" />
        </mxCell>
        <mxCell id="WH_KZMbTh99QJdh1wqXS-54" value="프로그램 종료" style="rounded=0;whiteSpace=wrap;html=1;" vertex="1" parent="1">
          <mxGeometry x="40" y="1120" width="230" height="60" as="geometry" />
        </mxCell>
      </root>
    </mxGraphModel>
  </diagram>
</mxfile>
